<svg width="30" height="30" viewBox="0 0 30 30" fill="none" xmlns="http://www.w3.org/2000/svg">
<path d="M27.1875 0H2.8125C1.26563 0 0 1.26563 0 2.8125V27.1875C0 28.7344 1.26563 30 2.8125 30H27.1875C28.7344 30 30 28.7344 30 27.1875V2.8125C30 1.26563 28.7344 0 27.1875 0ZM20.625 4.6875C20.625 4.17187 21.0469 3.75 21.5625 3.75H25.3125C25.8281 3.75 26.25 4.17187 26.25 4.6875V8.4375C26.25 8.95313 25.8281 9.375 25.3125 9.375H21.5625C21.314 9.3745 21.0758 9.27557 20.9001 9.09987C20.7244 8.92416 20.6255 8.68599 20.625 8.4375V4.6875ZM15 9.375C16.4667 9.41287 17.8606 10.0221 18.8846 11.0729C19.9086 12.1237 20.4816 13.5328 20.4816 15C20.4816 16.4672 19.9086 17.8763 18.8846 18.9271C17.8606 19.9779 16.4667 20.5871 15 20.625C13.5333 20.5871 12.1394 19.9779 11.1154 18.9271C10.0914 17.8763 9.51837 16.4672 9.51837 15C9.51837 13.5328 10.0914 12.1237 11.1154 11.0729C12.1394 10.0221 13.5333 9.41287 15 9.375V9.375ZM26.25 25.3125C26.25 25.8281 25.8281 26.25 25.3125 26.25H4.6875C4.43901 26.2495 4.20084 26.1506 4.02513 25.9749C3.84943 25.7992 3.7505 25.561 3.75 25.3125V13.125H5.8125C5.53407 14.4873 5.56223 15.8945 5.89491 17.2445C6.2276 18.5946 6.85649 19.8537 7.736 20.9307C8.61551 22.0077 9.72361 22.8754 10.98 23.4712C12.2364 24.0669 13.6095 24.3756 15 24.375C16.3905 24.3756 17.7636 24.0669 19.02 23.4712C20.2764 22.8754 21.3845 22.0077 22.264 20.9307C23.1435 19.8537 23.7724 18.5946 24.1051 17.2445C24.4378 15.8945 24.4659 14.4873 24.1875 13.125H26.25V25.3125Z" fill="white"/>
</svg>
