<svg width="32" height="30" viewBox="0 0 32 30" fill="none" xmlns="http://www.w3.org/2000/svg">
<path d="M7.12461 30V9.75906H0.39693V30H7.12461ZM3.76164 6.99384C6.1077 6.99384 7.56801 5.43957 7.56801 3.49725C7.5243 1.51113 6.10779 0 3.80616 0C1.50489 0 0 1.51116 0 3.49725C0 5.43966 1.45995 6.99384 3.71772 6.99384H3.76143H3.76164ZM10.8484 30H17.576V18.6965C17.576 18.0915 17.6197 17.4872 17.7974 17.0548C18.2838 15.8461 19.3907 14.5942 21.2492 14.5942C23.6837 14.5942 24.6576 16.4504 24.6576 19.1714V29.9999H31.3849V18.3939C31.3849 12.1767 28.0658 9.28386 23.6394 9.28386C20.0101 9.28386 18.4166 11.3125 17.5313 12.6942H17.5762V9.75864H10.8485C10.9368 11.6579 10.8485 29.9996 10.8485 29.9996L10.8484 30Z" fill="white"/>
</svg>
