<svg width="31" height="30" viewBox="0 0 31 30" fill="none" xmlns="http://www.w3.org/2000/svg">
<path d="M30.4152 13.6641L16.8839 0.565634C16.5093 0.203447 16.0015 0 15.472 0C14.9425 0 14.4346 0.203447 14.06 0.565634L11.2465 3.28644L14.8115 6.7365C16.6839 6.12443 18.4568 7.85951 17.8139 9.66155L21.2502 12.987C23.6188 12.1969 25.4836 15.063 23.7046 16.7833C21.8716 18.5572 18.8463 16.5911 19.8296 14.2828L16.6224 11.183V19.3427C18.373 20.1825 18.1627 22.1452 17.2507 23.0258C16.8051 23.4568 16.2009 23.6989 15.5709 23.6989C14.941 23.6989 14.3368 23.4568 13.8912 23.0258C12.6754 21.8472 13.1252 19.8845 14.6696 19.2758V11.039C13.2304 10.4691 12.9674 8.98051 13.3798 8.02558L9.86536 4.62039L0.584763 13.6031C0.210341 13.9656 0 14.4571 0 14.9696C0 15.4821 0.210341 15.9736 0.584763 16.336L14.1202 29.4344C14.4947 29.7966 15.0024 30 15.5318 30C16.0612 30 16.569 29.7966 16.9434 29.4344L30.4152 16.3969C30.7897 16.0345 31 15.543 31 15.0305C31 14.518 30.7897 14.0265 30.4152 13.6641V13.6641Z" fill="white"/>
</svg>
